<?xml version="1.0" encoding="UTF-8" standalone="no"?>
<svg width="145px" height="32px" viewBox="0 0 145 32" version="1.1" xmlns="http://www.w3.org/2000/svg" xmlns:xlink="http://www.w3.org/1999/xlink">
    <!-- Generator: Sketch 47 (45396) - http://www.bohemiancoding.com/sketch -->
    <title>Group 3</title>
    <desc>Created with Sketch.</desc>
    <defs></defs>
    <g id="Page-1" stroke="none" stroke-width="1" fill="none" fill-rule="evenodd">
        <g id="Desktop-HD-Copy-2" transform="translate(-59.000000, -43.000000)">
            <g id="Group-3" transform="translate(59.000000, 43.000000)">
                <path d="M6.63348666,30.7447396 L19.8774867,30.7447396 L19.8774867,29.7127396 L18.1144867,29.3687396 C16.6954867,29.1107396 16.5234867,28.8957396 16.5234867,26.4447396 L16.5234867,2.62273958 L17.0824867,2.62273958 C20.4794867,2.62273958 20.8664867,2.79473958 22.1564867,4.77273958 C23.1024867,6.23473958 23.7044867,7.61073958 24.7364867,10.3627396 L25.9834867,10.3627396 L25.5964867,0.945739577 L0.957486657,0.945739577 L0.570486657,10.3627396 L1.81748666,10.3627396 C2.84948666,7.61073958 3.45148666,6.23473958 4.39748666,4.77273958 C5.60148666,2.83773958 6.11748666,2.62273958 9.42848666,2.62273958 L10.0304867,2.62273958 L10.0304867,26.4447396 C10.0304867,28.8957396 9.77248666,29.1107396 8.43948666,29.3687396 L6.63348666,29.7127396 L6.63348666,30.7447396 Z M26.2450697,30.7447396 L37.7690697,30.7447396 L37.7690697,29.7557396 L36.0490697,29.4117396 C34.9740697,29.1967396 34.7590697,28.9817396 34.7590697,27.0467396 L34.7590697,12.7707396 C35.4040697,12.0827396 36.8230697,11.3517396 37.5970697,11.3517396 C37.9840697,11.3517396 38.1990697,11.4807396 38.4140697,11.9967396 C39.0590697,13.1577396 39.5750697,13.8027396 41.3810697,13.8027396 C42.8430697,13.8027396 44.0470697,12.7707396 44.0470697,10.9217396 C44.0470697,8.98673958 42.8860697,7.95473958 40.9510697,7.95473958 C38.6290697,7.95473958 36.1350697,9.67473958 34.7590697,11.1367396 L34.5440697,11.1367396 L34.6300697,8.29873958 L34.2430697,7.99773958 L26.1590697,8.98673958 L26.1590697,9.71773958 L27.6640697,10.6207396 C28.7820697,11.3087396 28.9970697,11.4377396 28.9970697,13.2437396 L28.9970697,27.0467396 C28.9970697,28.8097396 28.7820697,29.0677396 27.6210697,29.4117396 L26.2450697,29.7557396 L26.2450697,30.7447396 Z M52.6076527,31.2607396 C55.7466527,31.2607396 58.4556527,29.7557396 60.6916527,28.1647396 L60.9066527,28.1647396 L60.8206527,30.9597396 L61.2076527,31.2607396 L69.2056527,30.1427396 L69.2056527,29.3257396 L67.7866527,28.6807396 C66.6256527,28.2077396 66.4536527,27.9497396 66.4536527,25.8857396 L66.4536527,8.38473958 L65.9806527,7.99773958 L57.8536527,8.85773958 L57.8536527,9.63173958 L59.4446527,10.4917396 C60.5626527,11.0507396 60.6916527,11.2227396 60.6916527,12.8997396 L60.6916527,26.8317396 C59.4446527,27.2617396 57.7246527,27.9067396 55.9616527,27.9067396 C53.7686527,27.9067396 52.6936527,26.7887396 52.6936527,24.2517396 L52.6936527,8.38473958 L52.2206527,7.99773958 L44.0936527,8.85773958 L44.0936527,9.63173958 L45.6846527,10.4917396 C46.8026527,11.0937396 46.9316527,11.2227396 46.9316527,12.8997396 L46.9316527,25.5847396 C46.9316527,29.2827396 49.1246527,31.2607396 52.6076527,31.2607396 Z M76.8202357,31.2607396 C82.6682357,31.2607396 86.0222357,28.1217396 86.0222357,23.7787396 C86.0222357,20.4677396 83.7862357,18.5327396 79.1422357,16.8127396 C75.6592357,15.4797396 74.5412357,14.2757396 74.5412357,12.5127396 C74.5412357,10.6207396 75.8312357,9.50273958 78.0242357,9.50273958 C79.4862357,9.50273958 80.3462357,9.71773958 81.3352357,10.9217396 C82.1952357,11.9107396 82.8832357,12.9857396 83.6572357,14.4907396 L84.6462357,14.4907396 L84.4312357,8.81473958 C83.0982357,8.29873958 81.1202357,7.95473958 78.7122357,7.95473958 C73.4232357,7.95473958 70.0262357,10.8357396 70.0262357,14.8777396 C70.0262357,18.4467396 72.4772357,20.3387396 76.2612357,21.8007396 C79.9162357,23.2197396 81.3352357,24.2087396 81.3352357,26.3587396 C81.3352357,28.4657396 79.6582357,29.7127396 77.4222357,29.7127396 C75.4012357,29.7127396 74.4982357,29.1967396 73.6382357,27.9497396 C72.6492357,26.6167396 71.8752357,25.4557396 71.0582357,23.7787396 L69.9832357,23.7787396 L70.1982357,30.3147396 C71.9612357,30.8737396 74.3692357,31.2607396 76.8202357,31.2607396 Z M94.6688188,31.2607396 C97.9368188,31.2607396 100.000819,29.7557396 100.946819,28.9387396 L100.946819,27.8637396 C100.129819,28.0787396 98.8398188,28.3367396 97.7218188,28.3367396 C95.6578188,28.3367396 94.9268188,27.5197396 94.9268188,25.4987396 L94.9268188,10.8357396 L100.258819,10.8357396 L100.774819,8.59973958 L94.9268188,8.59973958 L94.9268188,3.09573958 L93.0778188,3.09573958 C91.8738188,6.49273958 89.4658188,8.77173958 86.3268188,9.88973958 L86.3268188,10.8357396 L89.1648188,10.8357396 L89.1648188,25.9287396 C89.1648188,29.7557396 91.2718188,31.2607396 94.6688188,31.2607396 Z" id="Trust" fill="#444444"></path>
                <path d="M110.912487,31.2832396 C114.051487,31.2832396 116.760487,29.7782396 118.996487,28.1872396 L119.211487,28.1872396 L119.125487,30.9822396 L119.512487,31.2832396 L127.510487,30.1652396 L127.510487,29.3482396 L126.091487,28.7032396 C124.930487,28.2302396 124.758487,27.9722396 124.758487,25.9082396 L124.758487,8.40723958 L124.285487,8.02023958 L116.158487,8.88023958 L116.158487,9.65423958 L117.749487,10.5142396 C118.867487,11.0732396 118.996487,11.2452396 118.996487,12.9222396 L118.996487,26.8542396 C117.749487,27.2842396 116.029487,27.9292396 114.266487,27.9292396 C112.073487,27.9292396 110.998487,26.8112396 110.998487,24.2742396 L110.998487,8.40723958 L110.525487,8.02023958 L102.398487,8.88023958 L102.398487,9.65423958 L103.989487,10.5142396 C105.107487,11.1162396 105.236487,11.2452396 105.236487,12.9222396 L105.236487,25.6072396 C105.236487,29.3052396 107.429487,31.2832396 110.912487,31.2832396 Z M135.12507,31.2832396 C140.97307,31.2832396 144.32707,28.1442396 144.32707,23.8012396 C144.32707,20.4902396 142.09107,18.5552396 137.44707,16.8352396 C133.96407,15.5022396 132.84607,14.2982396 132.84607,12.5352396 C132.84607,10.6432396 134.13607,9.52523958 136.32907,9.52523958 C137.79107,9.52523958 138.65107,9.74023958 139.64007,10.9442396 C140.50007,11.9332396 141.18807,13.0082396 141.96207,14.5132396 L142.95107,14.5132396 L142.73607,8.83723958 C141.40307,8.32123958 139.42507,7.97723958 137.01707,7.97723958 C131.72807,7.97723958 128.33107,10.8582396 128.33107,14.9002396 C128.33107,18.4692396 130.78207,20.3612396 134.56607,21.8232396 C138.22107,23.2422396 139.64007,24.2312396 139.64007,26.3812396 C139.64007,28.4882396 137.96307,29.7352396 135.72707,29.7352396 C133.70607,29.7352396 132.80307,29.2192396 131.94307,27.9722396 C130.95407,26.6392396 130.18007,25.4782396 129.36307,23.8012396 L128.28807,23.8012396 L128.50307,30.3372396 C130.26607,30.8962396 132.67407,31.2832396 135.12507,31.2832396 Z" id="us" fill="#00AA28"></path>
            </g>
        </g>
    </g>
</svg>